<svg xmlns="http://www.w3.org/2000/svg" viewBox="0 0 980 980"><defs><style>.cls-1{fill:#232323;}</style></defs><g id="Layer_2" data-name="Layer 2"><g id="Layer_1-2" data-name="Layer 1"><path class="cls-1" d="M980,36.09c-7.24,7.11-14.52,14.17-21.7,21.33l-428.09,427c-1.63,1.62-3.47,3-5.41,4.69,1.77,1.89,2.85,3.11,4,4.27q224.48,223.92,449,447.83c.7.69,1.47,1.32,2.21,2v1c-6,5.72-12,11.39-17.91,17.2-5.57,5.48-11,11.11-17.3,17.51L490.86,523,35.51,980c-6.33-6.68-11.33-12.18-16.58-17.45C12.73,956.34,6.32,950.33,0,944.23v-1c8.18-8.05,16.41-16,24.53-24.14Q237.64,706.53,450.74,494a44.13,44.13,0,0,1,4.56-3.47c-1.4-1.66-2.05-2.57-2.83-3.35Q227.36,262.55,2.24,38C1.55,37.3.75,36.72,0,36.09v-1c7.61-7.39,15.26-14.75,22.82-22.2C26.74,9,30.5,5,34.77.66L490.46,455.28,944.15,0c9,8.9,16.78,16.76,24.69,24.54,3.65,3.59,7.44,7,11.16,10.55Z"/></g></g></svg>